<?xml version="1.0" encoding="UTF-8" standalone="no"?>
<!-- Created with Inkscape (http://www.inkscape.org/) -->

<svg
   xmlns:dc="http://purl.org/dc/elements/1.1/"
   xmlns:cc="http://creativecommons.org/ns#"
   xmlns:rdf="http://www.w3.org/1999/02/22-rdf-syntax-ns#"
   xmlns:svg="http://www.w3.org/2000/svg"
   xmlns="http://www.w3.org/2000/svg"
   xmlns:sodipodi="http://sodipodi.sourceforge.net/DTD/sodipodi-0.dtd"
   xmlns:inkscape="http://www.inkscape.org/namespaces/inkscape"
   width="210mm"
   height="297mm"
   viewBox="0 0 744.09448819 1052.3622047"
   id="svg4265"
   version="1.1"
   inkscape:version="0.91 r13725"
   sodipodi:docname="ext_icon.svg">
  <defs
     id="defs4267" />
  <sodipodi:namedview
     id="base"
     pagecolor="#ffffff"
     bordercolor="#666666"
     borderopacity="1.0"
     inkscape:pageopacity="0.0"
     inkscape:pageshadow="2"
     inkscape:zoom="1.4"
     inkscape:cx="639.3058"
     inkscape:cy="782.76605"
     inkscape:document-units="px"
     inkscape:current-layer="layer1"
     showgrid="false"
     inkscape:window-width="1920"
     inkscape:window-height="1017"
     inkscape:window-x="-8"
     inkscape:window-y="-8"
     inkscape:window-maximized="1" />
  <metadata
     id="metadata4270">
    <rdf:RDF>
      <cc:Work
         rdf:about="">
        <dc:format>image/svg+xml</dc:format>
        <dc:type
           rdf:resource="http://purl.org/dc/dcmitype/StillImage" />
        <dc:title></dc:title>
      </cc:Work>
    </rdf:RDF>
  </metadata>
  <g
     inkscape:label="Ebene 1"
     inkscape:groupmode="layer"
     id="layer1">
    <g
       id="g4846"
       transform="translate(-34,-4)">
      <path
         inkscape:connector-curvature="0"
         id="path4839"
         d="m 191.68929,136.29132 c -6.43041,-1.21071 -16.05727,-8.59643 -19.35126,-14.84626 -3.92343,-7.44412 -4.76078,-18.69524 -2.44648,-32.872693 4.53903,-27.80623 20.96916,-50.17441 45.90488,-62.49548 6.8225,-3.37109 20.5866,-7.71315 22.93084,-7.23383 0.40263,0.0823 -0.81878,0.91673 -3.28798,2.24619 -20.64094,11.11348 -35.36601,29.89131 -38.23051,48.75263 -0.2834,1.86608 -0.51623,4.36943 -0.51739,5.56302 l -0.002,2.17016 4.375,0.61258 c 7.88651,1.10425 13.40761,3.69865 18.31553,8.60657 6.3557,6.3557 9.14843,14.410503 8.09864,23.358103 -0.86664,7.38648 -3.47365,12.81398 -8.61,17.92505 -4.48439,4.46231 -8.78771,6.78747 -14.5006,7.83496 -2.85723,0.52388 -10.66881,0.7574 -12.67857,0.379 z"
         style="opacity:1;fill:#e15c64;fill-opacity:1;stroke:none;stroke-width:0.10714286;stroke-miterlimit:4;stroke-dasharray:none;stroke-opacity:1" />
      <path
         inkscape:connector-curvature="0"
         id="path4841"
         d="m 241.86786,181.21166 c -16.80547,-1.89703 -33.06167,-9.32225 -46.34908,-21.17053 -3.01417,-2.6877 -11.32165,-11.62782 -10.805,-11.62782 0.12116,0 1.07102,0.62847 2.11079,1.3966 6.82809,5.0442 19.30679,10.90148 27.79657,13.04722 7.41437,1.87393 19.47685,2.12855 28.20424,0.59534 6.47344,-1.13724 15.92777,-4.48523 15.55382,-5.50796 -3.64682,-9.97374 -4.5392,-14.55333 -3.84799,-19.74745 1.21395,-9.12224 6.35896,-17.61132 13.40587,-22.11917 4.78738,-3.06246 9.37357,-4.22723 16.60935,-4.21836 5.97598,0.007 7.85038,0.42421 12.30942,2.73766 5.95622,3.09023 10.89288,8.08667 13.7433,13.90973 1.90825,3.8983 2.55258,6.45341 2.77686,11.01162 0.54266,11.02907 -4.67906,20.31191 -15.41374,27.40161 -8.51998,5.62699 -20.74887,10.83709 -30.21566,12.87333 -8.03367,1.72799 -18.19914,2.28506 -25.87875,1.41818 z"
         style="opacity:1;fill:#f47e5f;fill-opacity:1;stroke:#000000;stroke-width:0.10714286;stroke-miterlimit:4;stroke-dasharray:none;stroke-opacity:1" />
      <path
         inkscape:connector-curvature="0"
         id="path4843"
         d="m 326.10746,123.14546 c 0.0472,-8.6759 -0.21386,-11.62736 -1.60295,-18.125 -1.65455,-7.739363 -5.58934,-17.115843 -9.84815,-23.467883 -3.91128,-5.83366 -10.17589,-12.39909 -15.06058,-15.78377 -1.33804,-0.92715 -1.58901,-0.98817 -2.36222,-0.57437 -0.47581,0.25465 -1.60509,1.4709 -2.5095,2.70278 -3.97406,5.41297 -9.74411,9.24226 -17.19305,11.41014 -5.29093,1.53983 -6.94291,1.71052 -10.3591,1.07038 -16.76153,-3.14082 -27.22225,-15.28097 -26.44959,-30.69594 0.33425,-6.66827 2.5904,-12.69891 6.67275,-17.83613 5.98789,-7.53512 13.01173,-10.59197 24.28485,-10.56901 4.49304,0.009 7.46163,0.77482 12.3308,3.18042 9.79734,4.84035 21.52019,14.17079 30.09694,23.95472 8.04181,9.17371 14.84408,23.71927 17.0366,36.43008 1.40735,8.15887 1.59147,22.192673 0.38669,29.474943 -0.79215,4.78816 -4.54309,17.31078 -5.18516,17.31078 -0.15644,0 -0.26369,-3.81697 -0.23833,-8.48214 z"
         style="opacity:1;fill:#f7b26a;fill-opacity:1;stroke:#000000;stroke-width:0.10714286;stroke-miterlimit:4;stroke-dasharray:none;stroke-opacity:1" />
    </g>
  </g>
</svg>
